<svg xmlns="http://www.w3.org/2000/svg" xmlns:xlink="http://www.w3.org/1999/xlink" viewBox="0 0 48 48"><defs><linearGradient id="linear-gradient" x1="6.32" y1="-774.56" x2="35.57" y2="-832.1" gradientTransform="matrix(1, 0, 0, -1, 0, -778)" gradientUnits="userSpaceOnUse"><stop offset="0" stop-color="#09c6f9"/><stop offset="1" stop-color="#045de9"/></linearGradient><linearGradient id="linear-gradient-2" x1="19.92" y1="-767.65" x2="49.17" y2="-825.18" xlink:href="#linear-gradient"/><linearGradient id="linear-gradient-3" x1="12.25" y1="-771.55" x2="41.5" y2="-829.08" xlink:href="#linear-gradient"/><linearGradient id="linear-gradient-4" x1="-1.35" y1="-778.46" x2="27.9" y2="-836" xlink:href="#linear-gradient"/></defs><g id="Layer_2" data-name="Layer 2"><g id="Layer_1-2" data-name="Layer 1"><path d="M22.08,0V14.41H1.38A20.34,20.34,0,0,1,16.08.87,34,34,0,0,1,22.08,0Z" style="fill:url(#linear-gradient)"/><path d="M25.91,0V29.76H47.52a34.75,34.75,0,0,0-.44-13.7A20.34,20.34,0,0,0,31.92.87,34,34,0,0,0,25.91,0Z" style="fill:url(#linear-gradient-2)"/><path d="M46.62,33.59H25.91V48a34,34,0,0,0,6-.87A20.36,20.36,0,0,0,46.62,33.59Z" style="fill:url(#linear-gradient-3)"/><path d="M22.08,48V18.24H.48a34.75,34.75,0,0,0,.44,13.7A20.34,20.34,0,0,0,16.08,47.13,34,34,0,0,0,22.08,48Z" style="fill:url(#linear-gradient-4)"/></g></g></svg>