<svg xmlns="http://www.w3.org/2000/svg" xmlns:xlink="http://www.w3.org/1999/xlink" viewBox="0 0 152 32"><defs><linearGradient id="linear-gradient" x1="86.19" y1="-726.7" x2="105.69" y2="-765.06" gradientTransform="matrix(1, 0, 0, -1, 0, -730)" gradientUnits="userSpaceOnUse"><stop offset="0" stop-color="#09c6f9"/><stop offset="1" stop-color="#045de9"/></linearGradient><linearGradient id="linear-gradient-2" x1="126.19" y1="-726.7" x2="145.69" y2="-765.06" xlink:href="#linear-gradient"/><linearGradient id="linear-gradient-3" x1="46.19" y1="-726.7" x2="65.69" y2="-765.06" xlink:href="#linear-gradient"/><linearGradient id="linear-gradient-4" x1="6.19" y1="-726.7" x2="25.69" y2="-765.06" xlink:href="#linear-gradient"/></defs><g id="Layer_2" data-name="Layer 2"><g id="Layer_1-2" data-name="Layer 1"><circle cx="96" cy="16" r="16" style="fill:url(#linear-gradient)"/><path d="M91.19,20V17L88.37,11.6h1.74L92,15.48l1.85-3.88h1.72L92.73,17v3Zm7.29,0V12.84H96V11.6h6.44v1.24H100V20Z" style="fill:#fff"/><circle cx="136" cy="16" r="16" style="fill:url(#linear-gradient-2)"/><path d="M131.93,20V11.6h1.53v7.2h3.72V20Zm6.61,0V11.6h1.54V20Z" style="fill:#fff"/><circle cx="56" cy="16" r="16" style="fill:url(#linear-gradient-3)"/><path d="M49.82,20V11.6h1.53V20Zm6.83.14a3.89,3.89,0,0,1-2.07-.54,3.57,3.57,0,0,1-1.38-1.5,4.88,4.88,0,0,1-.5-2.25,4.85,4.85,0,0,1,.51-2.28A3.74,3.74,0,0,1,54.66,12a4.26,4.26,0,0,1,2.24-.56,4.06,4.06,0,0,1,2.45.7,3.25,3.25,0,0,1,1.26,2H58.9a1.64,1.64,0,0,0-.7-.91,2.26,2.26,0,0,0-1.3-.34,2.4,2.4,0,0,0-1.94.81,3.18,3.18,0,0,0-.68,2.18A3.16,3.16,0,0,0,55,18a2.37,2.37,0,0,0,1.85.76,2.22,2.22,0,0,0,1.71-.62,2.78,2.78,0,0,0,.71-1.63H57.1V15.38h3.67V20H59.35l-.12-1.1a2.81,2.81,0,0,1-1,.92A3.28,3.28,0,0,1,56.65,20.14Z" style="fill:#fff"/><circle cx="16" cy="16" r="16" style="fill:url(#linear-gradient-4)"/><path d="M8.82,20V11.6h5.42v1.24H10.35v2.35H13.5V16.4H10.35V20Zm6.6,0V11.6H18.8a2.89,2.89,0,0,1,2,.61,2,2,0,0,1,.69,1.55A1.81,1.81,0,0,1,21.05,15a2.1,2.1,0,0,1-1,.64,1.94,1.94,0,0,1,1.19.72,2,2,0,0,1,.47,1.32A2.11,2.11,0,0,1,21,19.35a3,3,0,0,1-2,.65ZM17,15.13h1.61a1.51,1.51,0,0,0,1-.3,1.07,1.07,0,0,0,.34-.85,1,1,0,0,0-.34-.83,1.47,1.47,0,0,0-1-.31H17Zm0,3.62h1.72a1.58,1.58,0,0,0,1.05-.31,1.12,1.12,0,0,0,.39-.9,1.15,1.15,0,0,0-.4-.92,1.56,1.56,0,0,0-1.07-.34H17Z" style="fill:#fff"/></g></g></svg>