<svg xmlns="http://www.w3.org/2000/svg" xmlns:xlink="http://www.w3.org/1999/xlink" viewBox="0 0 48 48"><defs><linearGradient id="linear-gradient" x1="3.92" y1="-775.79" x2="33.16" y2="-833.32" gradientTransform="matrix(1, 0, 0, -1, 0, -778)" gradientUnits="userSpaceOnUse"><stop offset="0" stop-color="#09c6f9"/><stop offset="1" stop-color="#045de9"/></linearGradient><linearGradient id="linear-gradient-2" x1="-7.19" y1="-781.43" x2="22.05" y2="-838.97" xlink:href="#linear-gradient"/><linearGradient id="linear-gradient-3" x1="25.77" y1="-764.68" x2="55.01" y2="-822.21" xlink:href="#linear-gradient"/><linearGradient id="linear-gradient-4" x1="14.66" y1="-770.33" x2="43.91" y2="-827.86" xlink:href="#linear-gradient"/></defs><g id="Layer_2" data-name="Layer 2"><g id="Layer_1-2" data-name="Layer 1"><path d="M13.84.42a15.55,15.55,0,0,0-7.18,0A8.34,8.34,0,0,0,.42,6.66a15.55,15.55,0,0,0,0,7.18,8.34,8.34,0,0,0,6.24,6.24,15.55,15.55,0,0,0,7.18,0,8.34,8.34,0,0,0,6.24-6.24,15.55,15.55,0,0,0,0-7.18A8.34,8.34,0,0,0,13.84.42Z" style="fill:url(#linear-gradient)"/><path d="M13.84,27.92a15.55,15.55,0,0,0-7.18,0A8.34,8.34,0,0,0,.42,34.16a15.6,15.6,0,0,0,0,7.19,8.35,8.35,0,0,0,6.24,6.23,15.55,15.55,0,0,0,7.18,0,8.35,8.35,0,0,0,6.24-6.23,15.6,15.6,0,0,0,0-7.19A8.34,8.34,0,0,0,13.84,27.92Z" style="fill:url(#linear-gradient-2)"/><path d="M41.35.42a15.6,15.6,0,0,0-7.19,0,8.34,8.34,0,0,0-6.24,6.24,15.55,15.55,0,0,0,0,7.18,8.34,8.34,0,0,0,6.24,6.24,15.6,15.6,0,0,0,7.19,0,8.35,8.35,0,0,0,6.23-6.24,15.55,15.55,0,0,0,0-7.18A8.35,8.35,0,0,0,41.35.42Z" style="fill:url(#linear-gradient-3)"/><path d="M41.35,27.92a15.6,15.6,0,0,0-7.19,0,8.34,8.34,0,0,0-6.24,6.24,15.6,15.6,0,0,0,0,7.19,8.35,8.35,0,0,0,6.24,6.23,15.6,15.6,0,0,0,7.19,0,8.35,8.35,0,0,0,6.23-6.23,15.6,15.6,0,0,0,0-7.19A8.35,8.35,0,0,0,41.35,27.92Z" style="fill:url(#linear-gradient-4)"/></g></g></svg>